<svg width="34" height="34" viewBox="0 0 34 34" fill="none" xmlns="http://www.w3.org/2000/svg">
<path fill-rule="evenodd" clip-rule="evenodd" d="M17.0004 3.40039C24.5115 3.40039 30.6004 9.48932 30.6004 17.0004C30.6004 24.5115 24.5115 30.6004 17.0004 30.6004C9.48932 30.6004 3.40039 24.5115 3.40039 17.0004C3.40039 9.48932 9.48932 3.40039 17.0004 3.40039ZM17.0003 15.3003C16.1285 15.3003 15.4099 15.9566 15.3117 16.802L15.3003 17.0003V23.8003C15.3003 24.7392 16.0614 25.5003 17.0003 25.5003C17.8721 25.5003 18.5907 24.844 18.6889 23.9986L18.7003 23.8003V17.0003C18.7003 16.0614 17.9392 15.3003 17.0003 15.3003ZM17.0003 8.50048C16.0614 8.50048 15.3003 9.2616 15.3003 10.2005C15.3003 11.1394 16.0614 11.9005 17.0003 11.9005C17.9392 11.9005 18.7003 11.1394 18.7003 10.2005C18.7003 9.2616 17.9392 8.50048 17.0003 8.50048Z" fill="#2F80ED"/>
</svg>
